<svg xmlns="http://www.w3.org/2000/svg" width="400" height="155.76" viewBox="0,0, 400,155.76">
  <defs><style> #path0 { fill: #7183b2; } </style></defs>
  <title>OULDI (logo)</title>
  <path id="path0" d=
  "M28.883 14.841 C 28.021 15.012,27.652 15.205,26.598 16.038 C 26.144 16.397,25.479 16.841,25.119 17.025 C 24.406 17.388,22.047 19.109,20.805 20.171 C 20.342 20.567,19.708 21.392,19.238 22.210 C 18.803 22.965,18.278 23.808,18.070 24.083 C 16.997 25.505,15.214 30.045,14.569 33.000 C 14.318 34.146,13.994 35.571,13.848 36.167 C 13.610 37.142,13.584 41.182,13.587 76.583 L 13.591 115.917 14.355 119.500 C 15.020 122.623,15.251 123.392,16.153 125.487 C 17.446 128.490,17.585 128.763,18.243 129.583 C 18.537 129.950,19.034 130.737,19.347 131.332 C 20.067 132.699,21.883 134.627,23.033 135.246 C 23.519 135.508,24.317 136.005,24.807 136.353 C 25.848 137.090,26.713 137.399,28.681 137.737 C 32.160 138.335,33.708 138.353,74.167 138.287 L 113.917 138.222 116.534 137.803 C 119.514 137.325,120.177 137.043,123.720 134.750 C 124.749 134.084,126.436 131.952,127.785 129.610 C 128.041 129.167,128.534 128.342,128.881 127.777 C 129.909 126.104,130.177 125.405,130.669 123.103 C 130.927 121.901,131.310 120.242,131.521 119.417 L 131.904 117.917 131.959 78.417 C 132.017 37.442,132.001 36.349,131.326 33.833 C 131.142 33.146,130.879 31.833,130.742 30.917 C 130.391 28.568,130.109 27.706,129.335 26.626 C 128.964 26.108,128.435 25.182,128.161 24.570 C 127.428 22.938,125.621 20.434,124.613 19.655 C 124.138 19.288,123.337 18.664,122.833 18.267 C 122.329 17.870,121.354 17.229,120.667 16.843 C 119.979 16.457,119.266 16.000,119.081 15.828 C 118.897 15.657,118.372 15.344,117.915 15.133 L 117.083 14.750 73.333 14.726 C 49.271 14.712,29.268 14.764,28.883 14.841 M162.083 15.359 C 161.438 15.419,160.293 15.700,159.522 15.987 C 158.756 16.272,157.390 16.688,156.488 16.912 C 154.774 17.336,154.192 17.579,153.083 18.335 C 152.717 18.585,151.967 19.022,151.417 19.307 C 149.922 20.081,148.285 21.937,146.927 24.396 C 146.578 25.026,146.000 25.961,145.641 26.473 C 145.237 27.051,144.829 27.944,144.566 28.827 C 144.334 29.610,143.851 31.150,143.493 32.250 C 142.343 35.782,142.417 32.666,142.417 77.917 C 142.417 123.155,142.344 120.046,143.490 123.583 C 143.846 124.683,144.291 126.108,144.478 126.750 C 144.665 127.392,145.121 128.404,145.490 129.000 C 145.860 129.596,146.463 130.646,146.830 131.333 C 148.704 134.840,151.586 136.995,156.167 138.312 C 160.936 139.683,157.213 139.580,201.333 139.571 C 245.287 139.563,243.332 139.610,246.275 138.490 C 247.226 138.129,248.075 137.833,248.162 137.833 C 248.691 137.833,250.269 137.043,250.950 136.438 C 251.390 136.047,252.166 135.454,252.674 135.120 C 253.778 134.395,255.181 132.720,255.737 131.463 C 255.958 130.962,256.522 129.966,256.990 129.250 C 257.473 128.509,257.977 127.474,258.158 126.849 C 258.334 126.244,258.781 124.700,259.152 123.417 C 260.330 119.343,260.250 122.640,260.250 78.083 C 260.250 33.365,260.299 35.490,259.191 32.274 C 258.840 31.252,258.418 29.854,258.255 29.167 C 257.944 27.858,257.676 27.311,256.826 26.241 C 256.544 25.886,256.018 25.030,255.656 24.339 C 254.038 21.245,252.823 20.099,248.726 17.807 C 247.661 17.211,244.411 16.086,242.417 15.622 C 240.903 15.271,165.676 15.024,162.083 15.359 M290.833 15.349 C 289.914 15.421,289.143 15.627,287.917 16.128 C 287.000 16.502,285.620 16.969,284.850 17.164 C 280.463 18.278,277.614 20.516,274.981 24.917 C 274.597 25.558,273.955 26.585,273.554 27.198 C 272.667 28.556,272.406 29.266,272.175 30.951 C 272.077 31.666,271.769 33.174,271.491 34.304 C 270.672 37.629,270.671 37.703,270.667 77.750 C 270.663 118.761,270.630 117.156,271.567 121.380 C 271.795 122.409,272.065 123.870,272.166 124.628 C 272.397 126.360,272.650 127.077,273.424 128.195 C 273.763 128.683,274.282 129.608,274.578 130.250 C 274.873 130.892,275.373 131.754,275.688 132.167 C 276.003 132.579,276.422 133.179,276.619 133.500 C 277.177 134.410,277.740 134.891,280.417 136.745 C 281.030 137.170,281.712 137.432,283.000 137.737 C 283.962 137.965,285.511 138.414,286.441 138.736 C 287.377 139.059,288.755 139.391,289.525 139.478 C 291.671 139.723,370.654 139.601,371.859 139.351 C 373.204 139.072,377.959 137.388,378.750 136.911 C 380.973 135.568,382.547 134.109,383.331 132.667 C 383.754 131.887,384.366 130.875,384.691 130.417 C 385.932 128.668,387.478 124.881,387.851 122.676 C 388.078 121.335,388.049 34.647,387.821 33.102 C 387.595 31.569,387.265 30.542,386.501 29.000 C 386.161 28.313,385.755 27.410,385.599 26.994 C 385.443 26.578,384.977 25.790,384.563 25.244 C 384.149 24.697,383.583 23.800,383.306 23.250 C 382.677 22.003,380.706 19.955,379.583 19.382 C 379.125 19.148,378.320 18.657,377.795 18.290 C 376.932 17.688,375.449 17.083,371.250 15.624 L 370.250 15.276 331.167 15.263 C 309.671 15.256,291.521 15.294,290.833 15.349 M113.410 20.654 C 118.091 21.765,118.842 22.159,121.267 24.777 C 126.246 30.151,126.670 32.189,126.663 50.733 C 126.658 64.615,126.808 64.136,122.675 63.418 C 120.959 63.120,118.205 63.238,114.833 63.752 C 110.150 64.467,109.418 63.899,110.642 60.500 C 112.380 55.675,112.225 45.717,110.360 42.318 C 109.980 41.626,109.529 40.651,109.357 40.151 C 108.011 36.239,105.410 33.229,101.686 31.272 C 101.055 30.940,100.176 30.369,99.732 30.002 C 98.353 28.862,92.229 27.458,88.583 27.446 C 85.479 27.435,80.857 28.779,79.298 30.146 C 78.997 30.410,77.432 31.491,75.822 32.549 C 72.593 34.668,72.111 35.123,71.226 36.883 C 70.894 37.543,70.394 38.416,70.115 38.823 C 69.836 39.230,69.366 40.317,69.070 41.240 C 68.775 42.162,68.292 43.514,67.997 44.244 C 66.979 46.762,66.836 48.913,67.627 49.789 C 68.122 50.337,70.192 51.921,71.500 52.753 C 72.188 53.191,73.042 53.797,73.398 54.102 C 73.754 54.406,74.617 54.890,75.315 55.178 C 78.952 56.678,82.040 59.196,83.153 61.571 C 83.450 62.205,83.988 63.159,84.348 63.689 C 86.348 66.633,87.162 73.861,86.084 79.091 C 84.923 84.719,85.270 85.549,89.083 86.253 C 89.908 86.405,91.579 86.782,92.796 87.089 C 94.013 87.397,95.999 87.774,97.209 87.928 C 99.830 88.262,100.333 88.424,101.892 89.439 C 102.547 89.866,103.328 90.373,103.626 90.566 C 105.081 91.506,106.272 93.878,106.594 96.477 C 106.727 97.544,106.911 98.646,107.003 98.927 C 107.361 100.011,109.530 101.494,110.763 101.498 C 111.641 101.501,114.880 101.006,115.667 100.748 C 116.079 100.613,117.557 100.244,118.950 99.927 C 120.954 99.471,121.751 99.204,122.765 98.648 C 126.234 96.744,126.626 97.529,126.648 106.417 C 126.686 121.382,125.052 126.929,119.667 130.126 C 119.254 130.371,118.372 130.924,117.707 131.356 C 115.000 133.112,118.089 133.000,72.254 132.997 C 26.774 132.993,30.169 133.120,28.000 131.340 C 27.587 131.001,26.875 130.473,26.417 130.166 C 25.375 129.468,22.718 126.906,22.396 126.289 C 22.264 126.036,21.924 125.173,21.642 124.373 C 21.359 123.572,20.861 122.392,20.535 121.750 C 19.523 119.759,19.588 116.833,20.645 116.833 C 21.005 116.833,21.288 117.144,21.887 118.194 C 22.427 119.140,23.711 120.301,25.167 121.161 C 25.762 121.513,26.550 122.041,26.917 122.335 C 27.283 122.628,28.155 123.156,28.853 123.508 C 29.551 123.860,30.464 124.379,30.881 124.660 C 33.470 126.407,44.191 127.096,62.250 126.676 C 66.925 126.567,74.200 126.411,78.417 126.328 C 89.362 126.115,90.703 125.958,93.227 124.601 C 93.973 124.200,95.410 123.600,96.420 123.268 C 99.541 122.243,101.585 120.497,102.347 118.208 C 102.550 117.598,102.965 116.553,103.270 115.885 C 104.406 113.391,104.734 110.546,104.495 105.243 C 104.284 100.549,104.073 99.619,102.664 97.178 C 99.720 92.076,97.238 90.675,89.500 89.746 C 81.853 88.828,80.575 87.893,81.652 84.000 C 81.817 83.404,82.162 82.167,82.418 81.250 C 83.074 78.900,83.165 71.045,82.554 69.500 C 81.498 66.833,80.639 64.894,80.299 64.413 C 80.089 64.117,79.455 63.208,78.892 62.395 C 77.422 60.275,75.320 58.421,73.139 57.320 C 72.597 57.046,71.687 56.503,71.118 56.113 C 70.549 55.724,69.633 55.231,69.083 55.017 C 68.533 54.804,67.375 54.281,66.509 53.856 L 64.935 53.083 63.091 53.083 L 61.247 53.083 59.665 53.855 C 58.795 54.280,57.783 54.721,57.417 54.836 C 56.631 55.081,51.740 57.449,51.234 57.829 C 50.589 58.313,48.515 60.907,47.987 61.891 C 47.699 62.427,47.135 63.268,46.735 63.760 C 46.334 64.252,45.754 65.126,45.447 65.702 C 45.139 66.279,44.610 67.200,44.271 67.750 C 43.497 69.006,43.167 70.074,43.061 71.667 C 42.949 73.336,43.173 73.665,45.450 75.176 C 46.440 75.832,47.668 76.793,48.179 77.310 C 49.619 78.769,51.144 80.046,52.361 80.812 C 54.190 81.965,55.650 84.189,56.748 87.495 C 57.105 88.569,57.977 93.470,57.878 93.847 C 57.677 94.617,56.416 93.489,55.555 91.770 C 55.228 91.117,54.566 90.096,54.083 89.500 C 53.143 88.338,51.234 85.359,50.417 83.777 C 49.089 81.207,45.858 79.225,41.536 78.327 C 38.637 77.726,37.824 77.718,33.951 78.251 L 30.917 78.669 28.686 79.793 C 25.330 81.484,24.268 82.431,22.090 85.679 C 21.190 87.020,20.947 87.231,20.447 87.106 C 19.333 86.826,19.297 85.873,19.379 58.667 C 19.459 32.433,19.371 34.267,20.691 31.266 C 21.058 30.432,21.557 29.229,21.799 28.591 C 22.262 27.374,22.518 27.064,25.946 23.573 C 29.282 20.174,25.450 20.406,77.750 20.437 C 103.815 20.453,112.791 20.507,113.410 20.654 M242.807 21.823 C 244.971 22.070,245.227 22.169,246.250 23.154 C 246.708 23.595,247.366 24.143,247.712 24.371 C 250.137 25.971,252.562 28.936,253.180 31.054 C 253.372 31.712,253.819 33.112,254.175 34.167 C 255.199 37.204,255.164 35.661,255.165 77.921 C 255.167 119.718,255.190 118.587,254.264 120.988 C 253.961 121.774,253.548 123.129,253.347 124.000 C 252.837 126.207,252.009 127.517,249.656 129.833 C 249.144 130.337,248.484 131.065,248.189 131.450 C 247.389 132.493,245.726 133.210,242.655 133.836 C 240.762 134.221,163.370 134.387,161.118 134.010 C 159.931 133.811,157.243 133.086,156.078 132.650 C 154.909 132.213,150.587 127.555,149.974 126.072 C 149.688 125.382,148.345 121.392,147.872 119.833 C 147.617 118.991,147.590 115.690,147.539 79.250 C 147.477 35.358,147.426 37.599,148.579 34.000 C 148.975 32.762,149.457 31.215,149.649 30.562 C 150.204 28.671,152.703 25.766,155.084 24.242 C 155.588 23.920,156.244 23.444,156.542 23.185 C 158.176 21.761,158.006 21.776,173.917 21.673 C 198.729 21.512,240.893 21.604,242.807 21.823 M301.902 22.000 C 303.055 22.595,303.084 22.727,303.080 27.471 C 303.075 32.889,303.095 32.838,300.493 33.895 C 297.934 34.935,296.876 35.627,295.111 37.417 C 291.723 40.851,291.345 41.274,290.789 42.250 C 290.475 42.800,289.978 43.632,289.683 44.100 C 288.208 46.442,287.700 52.940,288.588 58.107 C 289.333 62.437,291.494 65.644,296.167 69.351 C 296.854 69.896,297.731 70.595,298.116 70.904 C 298.523 71.232,299.394 71.658,300.199 71.923 C 304.424 73.317,304.917 74.068,304.677 78.750 C 304.514 81.931,304.277 82.296,301.864 83.080 C 301.004 83.359,297.256 85.753,296.250 86.667 C 295.975 86.916,295.281 87.434,294.708 87.817 C 294.135 88.199,293.667 88.569,293.667 88.639 C 293.667 88.708,293.144 89.350,292.506 90.065 C 291.575 91.108,291.244 91.633,290.830 92.724 C 289.868 95.261,289.750 95.512,289.167 96.284 C 288.122 97.665,287.827 97.742,283.372 97.803 C 278.138 97.874,277.040 97.600,276.399 96.066 C 276.034 95.193,276.051 38.497,276.417 36.417 C 277.113 32.455,277.950 30.156,279.586 27.708 C 280.123 26.904,282.583 25.035,283.917 24.417 C 284.558 24.119,285.496 23.541,286.000 23.132 C 287.710 21.745,288.071 21.691,295.417 21.724 C 300.386 21.745,301.500 21.793,301.902 22.000 M372.750 22.038 C 373.639 22.345,375.299 23.594,378.174 26.122 C 380.124 27.836,380.281 28.051,380.986 29.962 C 381.258 30.701,381.707 31.706,381.984 32.195 C 383.348 34.612,383.329 33.976,383.325 78.000 C 383.321 122.383,383.382 120.464,381.876 123.648 C 381.469 124.509,381.028 125.519,380.896 125.893 C 379.720 129.225,375.191 133.022,371.333 133.910 C 369.463 134.340,313.478 134.332,312.623 133.901 C 310.872 133.019,310.499 132.028,310.501 128.261 C 310.504 122.728,310.899 122.001,314.500 120.912 C 316.376 120.345,318.442 118.829,319.945 116.917 C 322.857 113.212,323.630 112.128,324.341 110.750 C 324.767 109.925,325.310 108.966,325.547 108.619 C 325.783 108.271,326.137 107.507,326.332 106.919 C 327.115 104.567,327.293 104.500,332.750 104.500 C 337.276 104.500,337.939 104.596,338.320 105.308 C 338.809 106.222,338.185 108.460,336.960 110.187 C 336.545 110.772,335.980 111.701,335.704 112.252 C 335.427 112.804,334.903 113.616,334.538 114.057 C 333.033 115.879,332.962 118.049,334.386 118.724 C 335.066 119.047,366.879 119.165,367.713 118.847 C 368.841 118.419,369.163 117.343,368.458 116.359 C 368.252 116.072,367.361 114.954,366.479 113.876 C 365.596 112.799,364.704 111.579,364.496 111.167 C 364.288 110.754,363.791 109.876,363.390 109.216 C 362.989 108.555,362.436 107.425,362.161 106.705 C 361.833 105.845,361.378 105.061,360.833 104.417 C 360.339 103.832,359.834 102.989,359.581 102.326 C 359.347 101.715,358.923 100.848,358.637 100.399 C 358.352 99.951,357.790 98.963,357.390 98.205 C 356.989 97.447,356.407 96.472,356.097 96.038 C 355.786 95.605,355.275 94.600,354.960 93.805 C 354.373 92.321,352.393 89.178,351.773 88.743 C 350.804 88.065,349.246 89.057,347.706 91.333 C 347.427 91.746,346.922 92.346,346.584 92.667 C 346.246 92.987,345.706 93.775,345.383 94.417 C 344.492 96.191,344.081 96.646,342.852 97.221 L 341.752 97.736 334.833 97.743 L 327.913 97.750 326.780 97.193 C 325.447 96.538,324.898 95.873,324.239 94.115 C 323.001 90.814,320.350 87.894,316.417 85.503 C 316.050 85.280,315.317 84.740,314.787 84.302 C 314.100 83.734,313.489 83.405,312.652 83.151 C 310.348 82.451,310.121 81.978,310.104 77.837 C 310.085 73.470,310.397 72.817,312.973 71.830 C 313.884 71.481,314.639 71.052,315.166 70.584 C 315.608 70.192,316.333 69.623,316.776 69.320 C 320.380 66.859,323.079 63.396,324.068 59.963 C 325.234 55.914,327.792 55.648,333.000 59.036 C 335.520 60.676,335.488 60.589,335.501 65.917 C 335.517 72.748,336.122 74.320,339.861 77.258 C 341.689 78.694,340.336 78.583,356.000 78.583 L 369.917 78.583 370.667 78.211 C 371.567 77.765,373.780 75.651,374.872 74.193 C 376.308 72.278,376.233 73.099,376.296 58.667 C 376.367 42.480,376.379 42.574,374.037 40.574 C 371.182 38.135,372.163 38.280,358.000 38.207 C 341.627 38.123,340.592 38.205,338.864 39.708 C 338.416 40.098,337.707 40.697,337.288 41.039 C 336.015 42.079,335.509 44.114,335.497 48.250 C 335.486 52.159,334.780 52.720,331.714 51.257 C 331.000 50.916,329.723 50.389,328.876 50.084 C 326.031 49.062,324.730 47.884,324.075 45.740 C 323.845 44.983,323.457 44.076,323.213 43.724 C 322.970 43.371,322.527 42.726,322.228 42.289 C 319.627 38.480,315.300 34.811,312.250 33.829 C 309.660 32.994,309.601 32.851,309.623 27.389 C 309.643 22.649,309.667 22.546,310.910 21.978 C 311.919 21.517,371.406 21.575,372.750 22.038 M198.583 27.163 C 194.473 27.536,189.731 28.818,187.966 30.033 C 187.393 30.427,186.173 31.130,185.254 31.595 C 184.335 32.059,183.133 32.674,182.583 32.962 C 182.033 33.249,181.021 33.748,180.333 34.071 C 175.553 36.313,172.671 39.624,174.387 40.900 C 174.907 41.287,176.861 41.347,183.112 41.166 C 186.289 41.074,186.603 41.159,187.162 42.265 C 187.476 42.887,187.613 59.630,187.313 60.776 C 186.876 62.447,185.068 63.098,182.742 62.421 C 181.150 61.959,180.826 61.442,180.410 58.703 C 179.892 55.282,176.786 57.363,175.234 62.172 C 174.896 63.218,174.373 64.526,174.072 65.079 C 171.538 69.731,171.621 85.499,174.208 91.000 C 174.618 91.871,175.087 93.108,175.251 93.750 C 175.696 95.493,178.118 99.190,179.048 99.547 C 179.187 99.600,179.750 100.230,180.300 100.947 C 181.659 102.720,183.253 104.326,185.298 105.983 C 186.242 106.748,187.211 107.632,187.452 107.948 C 187.888 108.520,190.198 109.985,191.871 110.750 C 193.833 111.648,198.953 112.331,203.750 112.336 C 208.095 112.339,208.249 112.479,208.250 116.417 C 208.250 120.281,207.915 120.616,203.891 120.778 C 198.534 120.994,191.637 119.632,189.144 117.865 C 188.744 117.582,187.817 116.975,187.083 116.517 C 186.350 116.059,185.445 115.458,185.073 115.180 C 184.700 114.903,183.860 114.381,183.205 114.021 C 182.550 113.661,181.579 113.028,181.049 112.615 C 180.518 112.202,179.596 111.644,179.000 111.375 C 177.619 110.751,176.317 109.572,175.368 108.086 C 174.957 107.443,174.424 106.691,174.184 106.415 C 172.977 105.030,171.098 102.043,170.635 100.775 C 170.364 100.031,169.815 98.821,169.416 98.086 C 169.017 97.351,168.493 96.037,168.251 95.167 C 168.010 94.296,167.487 92.721,167.090 91.667 C 165.529 87.523,164.763 77.829,165.548 72.167 C 165.694 71.112,165.896 69.450,165.996 68.472 C 166.214 66.340,166.472 65.295,167.157 63.771 C 167.440 63.141,167.861 61.866,168.092 60.938 C 168.625 58.797,168.875 58.159,169.669 56.897 C 170.022 56.337,170.497 55.437,170.724 54.897 C 170.952 54.358,171.370 53.478,171.652 52.941 C 172.454 51.421,172.261 50.862,170.636 49.998 C 170.057 49.691,169.199 49.040,168.730 48.553 C 167.511 47.287,166.921 47.356,165.998 48.872 C 165.704 49.355,165.177 50.125,164.826 50.584 C 164.117 51.512,163.946 51.893,163.473 53.583 C 163.293 54.225,162.819 55.359,162.418 56.103 C 161.618 57.588,161.306 58.528,160.907 60.667 C 160.761 61.446,160.355 62.798,160.004 63.671 C 159.159 65.774,159.056 66.196,158.752 68.813 C 158.609 70.040,158.413 71.390,158.318 71.813 C 157.108 77.158,157.091 79.554,158.225 84.833 C 158.451 85.888,158.686 87.162,158.747 87.667 C 158.980 89.618,159.367 91.325,159.992 93.167 C 160.350 94.221,160.877 96.011,161.162 97.144 C 161.448 98.278,161.914 99.665,162.198 100.228 C 162.483 100.790,162.959 101.939,163.256 102.781 C 163.553 103.623,164.103 104.748,164.477 105.281 C 164.851 105.814,165.449 106.935,165.807 107.772 C 166.578 109.575,168.225 111.828,170.685 114.445 C 171.608 115.426,172.650 116.647,173.001 117.157 C 174.285 119.025,176.229 120.621,177.877 121.160 C 179.148 121.575,182.030 123.264,183.595 124.510 C 186.280 126.646,189.541 127.770,195.655 128.668 C 200.127 129.324,207.328 129.369,208.337 128.747 C 208.385 128.718,209.779 128.500,211.435 128.264 C 214.523 127.823,215.878 127.464,217.070 126.769 C 217.444 126.551,218.292 126.143,218.954 125.862 C 219.615 125.582,220.590 125.058,221.120 124.699 C 221.650 124.340,222.566 123.802,223.156 123.505 C 223.746 123.207,224.609 122.682,225.073 122.338 C 225.537 121.993,226.463 121.397,227.130 121.012 C 230.114 119.292,231.695 117.043,230.625 116.040 C 229.878 115.340,229.494 115.299,223.250 115.259 C 216.696 115.216,216.721 115.219,215.805 114.206 C 214.829 113.125,214.749 112.658,215.057 109.849 C 215.203 108.511,215.442 105.317,215.587 102.750 C 216.027 94.994,216.168 94.669,219.098 94.667 C 222.597 94.666,224.206 95.576,224.396 97.665 C 224.635 100.279,225.997 100.370,227.550 97.878 C 228.027 97.113,228.653 96.112,228.942 95.654 C 229.231 95.195,229.630 94.204,229.830 93.452 C 230.029 92.699,230.528 91.392,230.937 90.547 C 232.559 87.203,233.247 79.429,232.520 72.667 C 232.328 70.879,232.128 69.004,232.076 68.500 C 231.947 67.253,231.749 66.656,230.913 64.993 C 230.519 64.210,230.030 62.959,229.826 62.214 C 229.622 61.468,229.296 60.598,229.102 60.281 C 228.909 59.963,228.412 59.122,228.000 58.412 C 227.588 57.702,226.829 56.550,226.313 55.852 C 225.798 55.154,225.185 54.204,224.951 53.740 C 224.337 52.520,222.544 50.909,221.016 50.203 C 219.578 49.538,217.095 47.842,215.555 46.470 C 214.970 45.949,214.213 45.432,213.871 45.321 C 213.529 45.209,212.575 44.819,211.750 44.453 C 208.568 43.041,205.176 42.718,198.257 43.166 C 193.620 43.467,192.859 43.126,192.258 40.484 C 191.485 37.086,191.945 36.353,195.270 35.684 C 202.267 34.276,210.703 34.929,213.947 37.130 C 214.480 37.492,215.479 38.070,216.167 38.414 C 216.854 38.758,217.839 39.298,218.355 39.614 C 218.872 39.931,219.927 40.401,220.699 40.659 C 224.293 41.859,228.035 44.860,229.742 47.914 C 230.069 48.498,230.698 49.376,231.140 49.863 C 232.530 51.396,233.624 53.167,234.411 55.157 C 234.645 55.748,235.131 56.685,235.492 57.241 C 236.294 58.476,236.368 58.670,236.994 61.169 C 237.269 62.267,237.688 63.548,237.925 64.016 C 238.802 65.747,239.190 68.463,239.759 76.833 C 239.998 80.353,238.965 88.908,238.009 91.319 C 237.661 92.198,237.165 93.730,236.908 94.725 C 236.582 95.987,236.206 96.944,235.664 97.892 C 235.236 98.639,234.680 99.870,234.428 100.628 C 234.177 101.386,233.658 102.459,233.277 103.012 C 231.698 105.304,231.625 105.564,232.078 107.311 C 232.212 107.829,232.427 109.158,232.555 110.263 C 232.888 113.132,233.095 113.379,234.548 112.647 C 236.219 111.805,237.849 109.744,239.050 106.952 C 239.335 106.291,239.852 105.337,240.199 104.833 C 240.545 104.329,241.140 103.317,241.520 102.583 C 241.901 101.850,242.491 100.837,242.834 100.333 C 243.475 99.388,244.509 97.085,245.340 94.750 C 245.779 93.518,246.378 89.980,247.357 82.833 C 247.881 79.012,247.627 75.155,246.240 65.917 C 245.797 62.964,243.937 57.921,242.780 56.536 C 242.200 55.842,241.863 55.218,241.138 53.496 C 240.686 52.424,239.648 50.597,238.283 48.471 C 237.751 47.642,237.093 46.493,236.821 45.917 C 236.295 44.802,233.826 41.853,232.500 40.755 C 232.088 40.413,230.651 39.019,229.308 37.657 C 226.781 35.095,225.473 34.095,223.858 33.494 C 223.340 33.301,222.429 32.896,221.833 32.594 C 221.237 32.292,220.207 31.849,219.543 31.609 C 218.045 31.070,217.198 30.642,216.174 29.906 C 215.223 29.222,214.487 28.950,212.168 28.419 C 211.205 28.199,209.779 27.818,209.000 27.574 C 207.432 27.081,201.891 26.863,198.583 27.163 M287.690 104.796 C 288.386 105.226,288.519 105.504,289.064 107.675 C 289.554 109.625,291.176 112.931,292.168 114.000 C 292.550 114.412,293.150 115.162,293.500 115.667 C 295.712 118.848,298.613 120.827,301.936 121.421 C 305.022 121.973,305.229 122.367,305.303 127.821 C 305.362 132.162,305.273 132.683,304.320 133.597 L 303.812 134.083 298.614 134.198 C 291.734 134.349,289.968 134.224,287.583 133.414 C 285.282 132.633,284.926 132.452,284.000 131.596 C 283.587 131.215,282.825 130.621,282.305 130.277 C 277.763 127.271,276.225 122.650,276.141 111.750 C 276.082 104.167,275.933 104.322,283.252 104.388 C 286.900 104.422,287.116 104.441,287.690 104.796 "
  ></path>
</svg>
